# xmcd CD database file
#
# Track frame offsets:
#	150
#	20930
#	45142
#	65887
#
# Disc length: 1198 seconds
#
# Revision: 0
# Processed by: cddbd v1.5.1PL2 Copyright (c) Steve Scherf et al.
# Submitted via: CDex 1.51
#
DISCID=3204ac04
DTITLE=S-nery - Feel for Love 〜愛をさがして〜
DYEAR=1997
DGENRE=Pop
TTITLE0=Feel for Love 〜愛をさがして〜
TTITLE1=千のプラトー 〜愛について語るとき僕たちが語ること〜
TTITLE2=Feel for Love 〜愛をさがして〜
TTITLE3=千のプラトー 〜愛について語るとき僕たちが語ること〜
EXTD=YEAR: 1997
EXTT0=
EXTT1=
EXTT2=
EXTT3=
PLAYORDER=
